<?xml version="1.0" encoding="UTF-8" standalone="no"?>
<!-- Generator: Adobe Illustrator 16.0.4, SVG Export Plug-In . SVG Version: 6.00 Build 0)  -->

<svg
   xmlns:dc="http://purl.org/dc/elements/1.1/"
   xmlns:cc="http://creativecommons.org/ns#"
   xmlns:rdf="http://www.w3.org/1999/02/22-rdf-syntax-ns#"
   xmlns:svg="http://www.w3.org/2000/svg"
   xmlns="http://www.w3.org/2000/svg"
   xmlns:sodipodi="http://sodipodi.sourceforge.net/DTD/sodipodi-0.dtd"
   xmlns:inkscape="http://www.inkscape.org/namespaces/inkscape"
   version="1.1"
   id="Layer_1"
   x="0px"
   y="0px"
   width="792"
   height="792"
   viewBox="0 0 792 792"
   enable-background="new 0 0 792 612"
   xml:space="preserve"
   inkscape:version="0.91 r13725"
   sodipodi:docname="boy.svg"><metadata
     id="metadata27"><rdf:RDF><cc:Work
         rdf:about=""><dc:format>image/svg+xml</dc:format><dc:type
           rdf:resource="http://purl.org/dc/dcmitype/StillImage" /><dc:title></dc:title></cc:Work></rdf:RDF></metadata><defs
     id="defs25" /><sodipodi:namedview
     pagecolor="#ffffff"
     bordercolor="#666666"
     borderopacity="1"
     objecttolerance="10"
     gridtolerance="10"
     guidetolerance="10"
     inkscape:pageopacity="0"
     inkscape:pageshadow="2"
     inkscape:window-width="1183"
     inkscape:window-height="897"
     id="namedview23"
     showgrid="false"
     inkscape:zoom="0.37626263"
     inkscape:cx="396"
     inkscape:cy="306"
     inkscape:window-x="433"
     inkscape:window-y="88"
     inkscape:window-maximized="0"
     inkscape:current-layer="Layer_1" /><g
     id="g3"
     transform="matrix(1.3093534,0,0,1.3093534,-118.41647,-6.5837397)"><path
       d="m 634.646,259.991 0,91.742 0,13.231 c 0,131.438 -166.721,238.177 -238.174,238.177 -71.453,0 -238.176,-106.74 -238.176,-238.177 l 0,-104.973 0,-8.82 c 0,-131.439 106.739,-238.176 238.176,-238.176 131.436,0 238.174,106.737 238.174,238.176 l 0,8.82 z"
       id="path5"
       inkscape:connector-curvature="0"
       style="fill:#fbe0c5" /><path
       d="m 301.201,151.489 c 43.225,43.223 151.728,81.157 333.445,82.919 -7.057,-125.262 -108.5,-224.06 -235.529,-224.06 -49.398,0 -96.152,14.996 -134.083,41.461 -3.528,28.227 1.765,66.159 36.167,99.68"
       id="path7"
       inkscape:connector-curvature="0"
       style="fill:#343132" /><path
       d="M 291.499,165.603 C 257.095,132.082 250.038,89.739 252.685,61.512 c -62.632,42.342 -94.388,114.677 -94.388,195.833 81.155,-9.705 115.558,-62.633 133.202,-91.742 z"
       id="path9"
       inkscape:connector-curvature="0"
       style="fill:#343132" /><path
       d="m 158.296,352.613 c -22.935,0 -40.578,-18.524 -40.578,-40.576 0,-22.052 18.524,-40.58 40.578,-40.58"
       id="path11"
       inkscape:connector-curvature="0"
       style="fill:#fbe0c5" /><path
       d="m 634.646,352.613 c 22.937,0 40.58,-18.524 40.58,-40.576 0,-22.052 -18.527,-40.58 -40.58,-40.58 l 0,81.156 z"
       id="path13"
       inkscape:connector-curvature="0"
       style="fill:#fbe0c5" /><circle
       cx="297.672"
       cy="319.97601"
       r="26.464001"
       id="circle15"
       style="fill:#030303" /><circle
       cx="500.56299"
       cy="319.97601"
       r="26.464001"
       id="circle17"
       style="fill:#030303" /><g
       id="g19"><path
         d="m 400.001,499.929 c 50.281,0 90.857,-40.576 90.857,-90.857 l -182.6,0 c 0,49.4 40.578,90.857 91.743,90.857 z"
         id="path21"
         inkscape:connector-curvature="0"
         style="fill:#ffffff" /></g></g></svg>