<?xml version="1.0" encoding="UTF-8" standalone="no"?>
<svg
   xmlns:dc="http://purl.org/dc/elements/1.1/"
   xmlns:cc="http://creativecommons.org/ns#"
   xmlns:rdf="http://www.w3.org/1999/02/22-rdf-syntax-ns#"
   xmlns:svg="http://www.w3.org/2000/svg"
   xmlns="http://www.w3.org/2000/svg"
   xmlns:sodipodi="http://sodipodi.sourceforge.net/DTD/sodipodi-0.dtd"
   xmlns:inkscape="http://www.inkscape.org/namespaces/inkscape"
   viewBox="0 0 45 45"
   style="enable-background:new 0 0 45 45;"
   xml:space="preserve"
   version="1.1"
   id="svg2"
   inkscape:version="0.91 r13725"
   sodipodi:docname="grandpa.svg"><sodipodi:namedview
     pagecolor="#ffffff"
     bordercolor="#666666"
     borderopacity="1"
     objecttolerance="10"
     gridtolerance="10"
     guidetolerance="10"
     inkscape:pageopacity="0"
     inkscape:pageshadow="2"
     inkscape:window-width="1334"
     inkscape:window-height="904"
     id="namedview26"
     showgrid="false"
     inkscape:zoom="7.4167645"
     inkscape:cx="-2.1966241"
     inkscape:cy="17.641199"
     inkscape:window-x="230"
     inkscape:window-y="52"
     inkscape:window-maximized="0"
     inkscape:current-layer="svg2" /><metadata
     id="metadata8"><rdf:RDF><cc:Work
         rdf:about=""><dc:format>image/svg+xml</dc:format><dc:type
           rdf:resource="http://purl.org/dc/dcmitype/StillImage" /><dc:title></dc:title></cc:Work></rdf:RDF></metadata><defs
     id="defs6"><clipPath
       id="clipPath16"
       clipPathUnits="userSpaceOnUse"><path
         id="path18"
         d="M 0,36 36,36 36,0 0,0 0,36 Z" /></clipPath></defs><g
     id="g20"
     transform="matrix(1.3055181,0,0,-1.3055181,41.73472,12.882651)"><path
       inkscape:connector-curvature="0"
       d="m 0,0 c 0,-4.068 -6.597,-7.367 -14.733,-7.367 -8.138,0 -14.734,3.299 -14.734,7.367 0,4.069 1.134,8.634 14.734,8.634 C -1.134,8.634 0,4.069 0,0"
       style="fill:#d1d3d4;fill-opacity:1;fill-rule:nonzero;stroke:none"
       id="path22" /></g><path
     id="path26"
     style="fill:#e9a774;fill-opacity:1;fill-rule:nonzero;stroke:none"
     d="m 40.995275,16.581184 c -0.415155,0 -0.808116,0.134468 -1.180188,0.336823 C 38.039582,6.9751815 30.96759,0.30528947 22.5,0.30528947 14.031104,0.30528947 6.960418,6.9751815 5.1849134,16.916702 4.8128407,16.715652 4.4198798,16.581184 4.004725,16.581184 c -2.0418303,0 -3.69853277,2.650201 -3.69853277,5.919219 0,3.269017 1.65670247,5.917913 3.69853277,5.917913 0.4974024,0 0.9713055,-0.161884 1.403432,-0.446487 2.0823014,9.63864 8.936271,16.722382 17.091843,16.722382 8.155572,0 15.009542,-7.083742 17.090538,-16.723687 0.433432,0.285908 0.907335,0.447792 1.404737,0.447792 2.04183,0 3.698533,-2.648896 3.698533,-5.917913 0,-3.269018 -1.656703,-5.919219 -3.698533,-5.919219"
     inkscape:connector-curvature="0" /><g
     id="g28"
     transform="matrix(1.3055181,0,0,-1.3055181,13.624044,23.805529)"><path
       inkscape:connector-curvature="0"
       d="m 0,0 c -0.367,0 -0.72,0.203 -0.896,0.553 -0.247,0.494 -0.046,1.095 0.448,1.342 L 1.818,3.027 C 2.313,3.274 2.913,3.073 3.16,2.58 3.407,2.086 3.206,1.485 2.713,1.238 L 0.446,0.105 C 0.303,0.034 0.15,0 0,0"
       style="fill:#662113;fill-opacity:1;fill-rule:nonzero;stroke:none"
       id="path30" /></g><g
     id="g32"
     transform="matrix(1.3055181,0,0,-1.3055181,31.375956,23.805529)"><path
       inkscape:connector-curvature="0"
       d="m 0,0 c -0.15,0 -0.303,0.034 -0.446,0.105 l -2.267,1.133 c -0.494,0.247 -0.694,0.848 -0.447,1.342 0.246,0.493 0.849,0.695 1.342,0.447 L 0.448,1.895 C 0.942,1.648 1.143,1.047 0.896,0.553 0.721,0.203 0.367,0 0,0"
       style="fill:#662113;fill-opacity:1;fill-rule:nonzero;stroke:none"
       id="path34" /></g><g
     id="g36"
     transform="matrix(1.3055181,0,0,-1.3055181,32.944145,17.277939)"><path
       inkscape:connector-curvature="0"
       d="m 0,0 -3,0 c -0.553,0 -1,0.448 -1,1 0,0.552 0.447,1 1,1 L 0,2 C 0.553,2 1,1.552 1,1 1,0.448 0.553,0 0,0"
       style="fill:#d1d3d4;fill-opacity:1;fill-rule:nonzero;stroke:none"
       id="path38" /></g><g
     id="g40"
     transform="matrix(1.3055181,0,0,-1.3055181,15.972409,17.277939)"><path
       inkscape:connector-curvature="0"
       d="m 0,0 -3,0 c -0.552,0 -1,0.448 -1,1 0,0.552 0.448,1 1,1 L 0,2 C 0.552,2 1,1.552 1,1 1,0.448 0.552,0 0,0"
       style="fill:#d1d3d4;fill-opacity:1;fill-rule:nonzero;stroke:none"
       id="path42" /></g><g
     id="g44"
     transform="matrix(1.3055181,0,0,-1.3055181,22.5,38.600966)"><path
       inkscape:connector-curvature="0"
       d="m 0,0 c -2.474,0 -4.879,1.187 -4.98,1.238 -0.494,0.247 -0.694,0.846 -0.448,1.34 0.246,0.495 0.848,0.692 1.341,0.45 C -4.066,3.018 -1.994,2 0,2 2.008,2 4.065,3.017 4.086,3.027 4.579,3.271 5.182,3.074 5.428,2.58 5.675,2.086 5.475,1.485 4.98,1.238 4.879,1.187 2.475,0 0,0"
       style="fill:#c1694f;fill-opacity:1;fill-rule:nonzero;stroke:none"
       id="path46" /></g><g
     id="g48"
     transform="matrix(1.3055181,0,0,-1.3055181,23.805518,31.638638)"><path
       inkscape:connector-curvature="0"
       d="m 0,0 -2,0 c -0.552,0 -1,0.447 -1,1 0,0.553 0.448,1 1,1 L 0,2 C 0.553,2 1,1.553 1,1 1,0.447 0.553,0 0,0"
       style="fill:#c1694f;fill-opacity:1;fill-rule:nonzero;stroke:none"
       id="path50" /></g></svg>