<?xml version="1.0" encoding="utf-8"?>
<!-- Generator: Adobe Illustrator 16.0.4, SVG Export Plug-In . SVG Version: 6.00 Build 0)  -->
<!DOCTYPE svg PUBLIC "-//W3C//DTD SVG 1.1//EN" "http://www.w3.org/Graphics/SVG/1.1/DTD/svg11.dtd">
<svg version="1.1" id="Layer_1" xmlns="http://www.w3.org/2000/svg" xmlns:xlink="http://www.w3.org/1999/xlink" x="0px" y="0px"
	 width="32px" height="32px" viewBox="0 0 32 32" enable-background="new 0 0 32 32" xml:space="preserve">
<g>
	<path fill="#7F7F7F" d="M16.062,1C7.811,1,1.122,7.689,1.122,15.938c0,8.251,6.689,14.939,14.939,14.939
		c8.25,0,14.938-6.688,14.938-14.939C31,7.689,24.312,1,16.062,1z M24.892,26.57c-1.418-0.051-4.418-0.524-5.729-3.463
		c-0.349-0.78-0.384-1.426,0-1.859c0.458-0.518,1.03-1.912,1.241-3.102c0.086-0.473,1.226-0.633,1.24-1.859
		c0.562-0.613-0.002-1.716,0-2.482c0.006-1.899,0.211-3.713-0.621-4.963c-2.461-3.698-7.381-3.665-9.924,0
		c-0.781,1.122-0.625,3.055-0.623,4.963c0,0.784-0.662,1.833,0,2.482c0,1.23,1.086,1.189,1.242,1.859
		c0.276,1.207,0.618,2.484,1.24,3.102c0.605,0.607,0.273,1.055,0,1.859c-0.895,2.625-4.04,3.416-5.497,3.644
		c-3.177-2.53-5.217-6.433-5.217-10.811c0-7.631,6.188-13.821,13.819-13.821c7.632,0,13.818,6.186,13.818,13.821
		C29.882,20.214,27.94,24.037,24.892,26.57z"/>
</g>
</svg>
