<?xml version="1.0" encoding="UTF-8" standalone="no"?>
<!-- Generator: Adobe Illustrator 18.1.1, SVG Export Plug-In . SVG Version: 6.00 Build 0)  -->

<svg
   xmlns:dc="http://purl.org/dc/elements/1.1/"
   xmlns:cc="http://creativecommons.org/ns#"
   xmlns:rdf="http://www.w3.org/1999/02/22-rdf-syntax-ns#"
   xmlns:svg="http://www.w3.org/2000/svg"
   xmlns="http://www.w3.org/2000/svg"
   xmlns:sodipodi="http://sodipodi.sourceforge.net/DTD/sodipodi-0.dtd"
   xmlns:inkscape="http://www.inkscape.org/namespaces/inkscape"
   version="1.1"
   id="Layer_1"
   x="0px"
   y="0px"
   viewBox="0 0 283.46 283.46"
   style="enable-background:new 0 0 283.46 283.46;"
   xml:space="preserve"
   inkscape:version="0.91 r13725"
   sodipodi:docname="woman.svg"><metadata
     id="metadata133"><rdf:RDF><cc:Work
         rdf:about=""><dc:format>image/svg+xml</dc:format><dc:type
           rdf:resource="http://purl.org/dc/dcmitype/StillImage" /><dc:title></dc:title></cc:Work></rdf:RDF></metadata><defs
     id="defs131" /><sodipodi:namedview
     pagecolor="#ffffff"
     bordercolor="#666666"
     borderopacity="1"
     objecttolerance="10"
     gridtolerance="10"
     guidetolerance="10"
     inkscape:pageopacity="0"
     inkscape:pageshadow="2"
     inkscape:window-width="1287"
     inkscape:window-height="868"
     id="namedview129"
     showgrid="false"
     inkscape:zoom="1.1774304"
     inkscape:cx="50.593186"
     inkscape:cy="160.95473"
     inkscape:window-x="443"
     inkscape:window-y="83"
     inkscape:window-maximized="0"
     inkscape:current-layer="Layer_1" /><path
     style="fill:#c69c6d"
     d="M 85.509964,259.9597 C 66.587476,265.08971 38.672439,264.14967 34.561069,165.79782 30.449698,67.44596 68.154768,-16.067091 176.52689,9.2003079 L 92.857108,250.57054 Z"
     id="path3"
     inkscape:connector-curvature="0"
     sodipodi:nodetypes="csccc" /><linearGradient
     id="SVGID_1_"
     gradientUnits="userSpaceOnUse"
     x1="184.1017"
     y1="214.80885"
     x2="191.3083"
     y2="53.8468"
     gradientTransform="matrix(1.4794425,0,0,1.4794425,-73.068374,-3.5983491)"><stop
       offset="0.11691675"
       style="stop-color:#E2C37D"
       id="stop18" /><stop
       offset="1"
       style="stop-color:#C69C6D"
       id="stop20" /></linearGradient><path
     style="fill:url(#SVGID_1_)"
     d="m 238.81535,76.693443 c 1.77695,27.437697 31.49576,100.093747 -7.16413,177.195107 -1.79914,12.34765 -35.82062,15.86483 -36.03563,5.2208 32.51075,-79.69165 43.19976,-182.415907 43.19976,-182.415907 z"
     id="path22"
     inkscape:connector-curvature="0"
     sodipodi:nodetypes="cccc" /><g
     id="g24"
     transform="matrix(1.4794425,0,0,1.4794425,-73.068374,-3.5983491)"><path
       style="fill:#d6b3a3"
       d="m 80.436,120.15 c -1.276,-10.913 1.544,-20.265 6.299,-20.888 4.755,-0.624 9.645,7.718 10.921,18.63 1.276,10.913 -1.544,20.265 -6.299,20.888 -4.755,0.623 -9.645,-7.717 -10.921,-18.63 z"
       id="path26"
       inkscape:connector-curvature="0" /><path
       style="fill:#eacdbe"
       d="m 213.263,120.15 c 1.276,-10.913 -1.544,-20.265 -6.299,-20.888 -4.755,-0.624 -9.645,7.718 -10.921,18.63 -1.276,10.913 1.544,20.265 6.299,20.888 4.755,0.624 9.645,-7.717 10.921,-18.63 z"
       id="path28"
       inkscape:connector-curvature="0" /></g><path
     style="fill:#f7dccd"
     d="M 222.84528,60.757401 144.18776,20.07273 65.53024,60.757401 57.848973,124.53764 c -0.122794,1.58301 -0.09912,3.17489 0.07249,4.75197 L 73.44674,229.5174 c 0.809249,7.47415 4.849605,14.0991 10.90053,17.87168 l 43.79594,30.22204 c 3.37608,2.10525 7.20784,3.21336 11.10912,3.21336 l 5.84232,0 4.02705,0 c 3.90129,0 7.73452,-1.10811 11.10913,-3.21336 l 43.79594,-30.22204 c 6.04945,-3.77258 10.0898,-10.39753 10.90053,-17.87168 l 15.52527,-100.22779 c 0.17162,-1.57708 0.1953,-3.16896 0.0725,-4.75197 l -7.67979,-63.780239 z"
     id="path30"
     inkscape:connector-curvature="0" /><g
     id="g32"
     transform="matrix(1.4794425,0,0,1.4794425,-73.068374,-3.5983491)"><g
       id="g34"><path
         style="fill:#a67c52"
         d="m 107.806,86.156 c 5.444,-0.018 13.947,0.645 17.09,1.232 4.772,0.891 6.888,6.924 6.888,6.924 L 119.1,92.945 c 0,0 -10.971,-9.127 -22.906,-0.699 -0.002,0 4.992,-6.068 11.612,-6.09 z"
         id="path36"
         inkscape:connector-curvature="0" /></g><g
       id="g38"><path
         style="fill:#a67c52"
         d="m 196.533,92.246 c -11.935,-8.428 -22.906,0.699 -22.906,0.699 l -12.684,1.367 c 0,0 2.116,-6.033 6.888,-6.924 3.143,-0.587 11.645,-1.25 17.09,-1.232 6.619,0.022 11.612,6.09 11.612,6.09 z"
         id="path40"
         inkscape:connector-curvature="0" /></g></g><g
     id="g42"
     transform="matrix(1.4794425,0,0,1.4794425,-73.068374,-3.5983491)"><path
       style="fill:#e5c6b7"
       d="m 167.906,107.387 19.193,1.339 c 0.001,0 -8.833,8.598 -19.193,-1.339 z"
       id="path44"
       inkscape:connector-curvature="0" /><path
       style="fill:#e5c6b7"
       d="m 123.929,107.387 -19.193,1.339 c -0.001,0 8.833,8.598 19.193,-1.339 z"
       id="path46"
       inkscape:connector-curvature="0" /></g><g
     id="g48"
     transform="matrix(1.4794425,0,0,1.4794425,-73.068374,-3.5983491)"><ellipse
       style="fill:#ffffff"
       cx="89.654999"
       cy="143.25"
       rx="3.0409999"
       ry="2.8"
       id="ellipse50" /><ellipse
       style="fill:#ffffff"
       cx="204.045"
       cy="143.25"
       rx="3.0409999"
       ry="2.8"
       id="ellipse52" /></g><path
     style="fill:#ffffff"
     d="m 177.82732,220.01051 c 0,-4.30517 -15.23825,-2.77396 -34.03457,-2.77396 -18.79633,0 -34.03458,-1.53121 -34.03458,2.77396 0,4.30517 15.23825,12.81493 34.03458,12.81493 18.79632,0 34.03457,-8.51123 34.03457,-12.81493 z"
     id="path54"
     inkscape:connector-curvature="0" /><path
     style="fill:#c1272d"
     d="m 177.91017,218.27217 c 0,0 -18.66908,14.81365 -34.37928,14.81365 -15.71169,0 -34.37929,-14.81365 -34.37929,-14.81365 l -2.77543,-0.4039 c 0,0 16.53572,26.15211 37.1562,26.15211 20.62046,0 37.1562,-26.15211 37.1562,-26.15211 l -2.7784,0.4039 z"
     id="path56"
     inkscape:connector-curvature="0" /><path
     style="fill:#c1272d"
     d="m 184.24663,216.7661 c 0,0 -18.59216,-2.62602 -40.67876,0.16865 -22.08659,-2.79467 -40.67875,-0.16865 -40.67875,-0.16865 8.70503,3.50923 33.04334,4.74456 40.67875,2.77987 7.63392,1.96321 31.97223,0.72788 40.67876,-2.77987 z"
     id="path58"
     inkscape:connector-curvature="0" /><linearGradient
     id="SVGID_2_"
     gradientUnits="userSpaceOnUse"
     x1="159.1107"
     y1="61.9507"
     x2="211.0036"
     y2="61.9507"
     gradientTransform="matrix(1.4794425,0,0,1.4794425,-73.068374,-3.5983491)"><stop
       offset="0.0239"
       style="stop-color:#E2C37D"
       id="stop61" /><stop
       offset="1"
       style="stop-color:#C69C6D"
       id="stop63" /></linearGradient><path
     style="fill:url(#SVGID_2_)"
     d="m 162.3272,37.968068 c 63.15444,2.720694 63.08195,128.939332 63.08195,128.939332 0,0 52.76432,-146.43226 -48.88226,-157.7070921 L 162.3272,37.968068 Z"
     id="path65"
     inkscape:connector-curvature="0" /><linearGradient
     id="SVGID_3_"
     gradientUnits="userSpaceOnUse"
     x1="190"
     y1="81.8633"
     x2="69.7731"
     y2="81.8633"
     gradientTransform="matrix(1.4794425,0,0,1.4794425,-73.068374,-3.5983491)"><stop
       offset="0.0239"
       style="stop-color:#E2C37D"
       id="stop68" /><stop
       offset="1"
       style="stop-color:#C69C6D"
       id="stop70" /></linearGradient><path
     style="fill:url(#SVGID_3_)"
     d="m 34.071373,188.55313 c 3.660141,15.73091 12.619644,30.01197 20.092309,43.44974 C 42.767536,201.10619 49.021141,115.69058 81.533371,88.866808 112.98632,62.917386 196.06737,80.441383 208.0257,17.853567 87.821001,-31.707758 11.62971,47.442418 34.071373,188.55313 Z"
     id="path72"
     inkscape:connector-curvature="0" /><g
     id="g74"
     transform="matrix(1.4794425,0,0,1.4794425,-73.068374,-3.5983491)"><path
       style="opacity:0.51999996;fill:#e5c6b7"
       d="m 95.401,136.226 35.389,-1.936 c 0,0 -17.982,33.962 -35.389,1.936 z"
       id="path76"
       inkscape:connector-curvature="0" /><path
       style="opacity:0.51999996;fill:#e5c6b7"
       d="m 197.815,136.226 -35.389,-1.936 c 0,0 17.981,33.962 35.389,1.936 z"
       id="path78"
       inkscape:connector-curvature="0" /></g><g
     id="g80"
     transform="matrix(1.4794425,0,0,1.4794425,-73.068374,-3.5983491)"><polygon
       style="opacity:0.41000001;fill:#e5c6b7"
       points="187.233,143.742 183.185,142.209 178.082,167.9 "
       id="polygon82" /><polygon
       style="opacity:0.41000001;fill:#e5c6b7"
       points="105.935,143.742 109.982,142.209 115.085,167.9 "
       id="polygon84" /></g><g
     style="opacity:0.68999999"
     id="g86"
     transform="matrix(1.4794425,0,0,1.4794425,-73.068374,-3.5983491)"><ellipse
       style="opacity:0.36000001;fill:#e5c6b7"
       cx="146.85001"
       cy="143.015"
       rx="4.0170002"
       ry="5.381"
       id="ellipse88" /><linearGradient
       id="SVGID_4_"
       gradientUnits="userSpaceOnUse"
       x1="146.84959"
       y1="141.50459"
       x2="146.84959"
       y2="97.193802"><stop
         offset="0"
         style="stop-color:#E2B59F"
         id="stop91" /><stop
         offset="1"
         style="stop-color:#F7DCCD"
         id="stop93" /></linearGradient><path
       style="fill:url(#SVGID_4_)"
       d="m 155.245,127.287 c -0.407,0 -0.804,0.039 -1.188,0.111 -1.126,-4.181 -1.519,-8.812 -1.519,-11.073 0,-3.795 3.579,-18.498 3.579,-18.498 l -9.159,-0.618 0,-0.015 -0.109,0.007 -0.109,-0.007 0,0.015 -9.159,0.618 c 0,0 3.579,14.703 3.579,18.498 0,2.261 -0.392,6.892 -1.519,11.073 -0.383,-0.072 -0.781,-0.111 -1.188,-0.111 -3.192,0 -4.804,2.331 -4.804,5.207 0,2.876 1.613,5.207 4.804,5.207 1.094,0 2.108,-0.285 2.979,-0.762 0.396,2.583 2.667,4.566 5.417,4.566 2.75,0 5.021,-1.983 5.417,-4.566 0.871,0.477 1.885,0.762 2.979,0.762 3.192,0 4.804,-2.331 4.804,-5.207 0,-2.876 -1.612,-5.207 -4.804,-5.207 z"
       id="path95"
       inkscape:connector-curvature="0" /><g
       id="g97"><ellipse
         style="fill:#42210b"
         cx="154.526"
         cy="136.87801"
         rx="2.9920001"
         ry="0.92400002"
         id="ellipse99" /><ellipse
         style="fill:#42210b"
         cx="139.173"
         cy="136.87801"
         rx="2.9920001"
         ry="0.92400002"
         id="ellipse101" /></g><path
       style="opacity:0.92000002;fill:#d1a695"
       d="m 155.112,134.466 0.187,-4.488 -2.472,4.488 -11.955,0 -2.472,-4.488 0.187,4.488 -4.649,0 c 0.592,1.897 2.099,3.235 4.515,3.235 1.094,0 2.108,-0.285 2.979,-0.762 0.396,2.583 2.667,4.566 5.417,4.566 2.75,0 5.021,-1.983 5.417,-4.566 0.871,0.477 1.885,0.762 2.979,0.762 2.416,0 3.923,-1.338 4.515,-3.235 l -4.648,0 z"
       id="path103"
       inkscape:connector-curvature="0" /></g><g
     id="g105"
     transform="matrix(1.4794425,0,0,1.4794425,-73.068374,-3.5983491)"><g
       id="g107"><path
         style="fill:#4c5626"
         d="m 99.861,101.404 c 0,0 18.29,-15.839 30.853,1.283 0.001,0 -8.184,-21.103 -30.853,-1.283 z"
         id="path109"
         inkscape:connector-curvature="0" /><path
         style="fill:#4c5626"
         d="m 102.214,102.4 c 0,0 14.101,-14.101 26.346,0.742 0,0 -7.873,-3.718 -17.406,-2.927 -2.886,0.239 -5.923,0.892 -8.94,2.185 z"
         id="path111"
         inkscape:connector-curvature="0" /><path
         style="fill:#4c5626"
         d="M 110.545,99.445 99.909,98.817 c 0,0 0.759,8.792 10.636,0.628 z"
         id="path113"
         inkscape:connector-curvature="0" /><path
         style="fill:#4c5626"
         d="m 108.887,98.345 c -0.234,0.705 -0.366,1.457 -0.366,2.241 0,3.93 3.186,7.116 7.116,7.116 3.93,0 7.116,-3.186 7.116,-7.116 0,-0.391 -0.04,-0.771 -0.1,-1.144 l -13.766,-1.097 z"
         id="path115"
         inkscape:connector-curvature="0" /></g><g
       id="g117"><path
         style="fill:#4c5626"
         d="m 193.106,101.404 c 0,0 -18.29,-15.839 -30.853,1.283 0,0 8.185,-21.103 30.853,-1.283 z"
         id="path119"
         inkscape:connector-curvature="0" /><path
         style="fill:#4c5626"
         d="m 190.754,102.4 c 0,0 -14.101,-14.101 -26.346,0.742 0,0 7.873,-3.718 17.406,-2.927 2.885,0.239 5.923,0.892 8.94,2.185 z"
         id="path121"
         inkscape:connector-curvature="0" /><path
         style="fill:#4c5626"
         d="m 182.423,99.445 10.636,-0.628 c 0,0 -0.759,8.792 -10.636,0.628 z"
         id="path123"
         inkscape:connector-curvature="0" /><path
         style="fill:#4c5626"
         d="m 184.08,98.345 c 0.234,0.705 0.366,1.457 0.366,2.241 0,3.93 -3.186,7.116 -7.116,7.116 -3.93,0 -7.116,-3.186 -7.116,-7.116 0,-0.391 0.04,-0.771 0.1,-1.144 l 13.766,-1.097 z"
         id="path125"
         inkscape:connector-curvature="0" /></g></g><ellipse
     style="opacity:0.35;fill:#ffffff"
     cx="144.18777"
     cy="194.18834"
     rx="6.3971095"
     ry="5.6840181"
     id="ellipse127" /></svg>