<?xml version="1.0" encoding="utf-8"?>
<!-- Generator: Adobe Illustrator 16.0.4, SVG Export Plug-In . SVG Version: 6.00 Build 0)  -->
<!DOCTYPE svg PUBLIC "-//W3C//DTD SVG 1.1//EN" "http://www.w3.org/Graphics/SVG/1.1/DTD/svg11.dtd">
<svg version="1.1" id="Layer_3" xmlns="http://www.w3.org/2000/svg" xmlns:xlink="http://www.w3.org/1999/xlink" x="0px" y="0px"
	 width="792px" height="612px" viewBox="0 0 792 612" enable-background="new 0 0 792 612" xml:space="preserve">
<line display="none" fill="none" stroke="#A3A29F" stroke-miterlimit="10" x1="41.448" y1="488.688" x2="791.736" y2="488.688"/>
<g>
	<path fill="#FFF27A" d="M58.08,373.056c-0.792,11.088-7.128,57.024-15.576,58.345c-8.448,1.319,60.456,0,60.456,0"/>
	<path fill="#FFF27A" d="M200.64,373.056c0.792,11.088,7.128,57.024,15.576,58.345c8.448,1.319-63.096,0-63.096,0"/>
	<path fill="#FFD7AB" d="M200.904,343.752v27.456v3.96c0,39.336-49.896,71.28-71.28,71.28c-21.384,0-71.28-31.944-71.28-71.28
		v-31.416v-2.64c0-39.336,31.944-71.28,71.28-71.28s71.28,31.944,71.28,71.28V343.752z"/>
	<path fill="#FFD7AB" d="M58.344,371.472c-6.864,0-12.144-5.544-12.144-12.144s5.544-12.145,12.144-12.145"/>
	<path fill="#FFD7AB" d="M200.904,371.472c6.864,0,12.144-5.544,12.144-12.144s-5.544-12.145-12.144-12.145V371.472z"/>
	<circle fill="#020202" cx="100.056" cy="361.704" r="7.92"/>
	<circle fill="#020202" cx="160.776" cy="361.704" r="7.92"/>
	<g>
		<path fill="#FFFFFF" d="M130.68,415.56c15.048,0,27.192-12.144,27.192-27.191h-54.648
			C103.224,403.152,115.368,415.56,130.68,415.56z"/>
	</g>
	<g>
		<g>
			<g>
				<path fill="#FFF27A" d="M153.648,317.088l3.96-5.016c0,0,8.184,30.096,38.808,31.416c0.264,0,2.376,0,4.488,0.264v-0.264
					c0-40.92-31.944-73.92-71.28-73.92s-71.016,33-71.28,73.656c1.32,0,2.376,0,2.64,0
					C115.104,342.696,141.504,330.552,153.648,317.088z"/>
			</g>
		</g>
	</g>
</g>
<g>
	<path fill="#FCE0C5" d="M466.752,343.752v27.456v3.96c0,39.336-49.896,71.28-71.28,71.28s-71.28-31.944-71.28-71.28v-31.416v-2.64
		c0-39.336,31.944-71.28,71.28-71.28c39.335,0,71.28,31.944,71.28,71.28V343.752z"/>
	<path fill="#333031" d="M366.96,311.28c12.936,12.936,45.408,24.288,99.792,24.815c-2.112-37.488-32.472-67.056-70.488-67.056
		c-14.784,0-28.776,4.488-40.127,12.408C355.08,289.896,356.664,301.248,366.96,311.28"/>
	<path fill="#333031" d="M364.056,315.504c-10.296-10.032-12.408-22.704-11.616-31.152c-18.744,12.672-28.248,34.32-28.248,58.608
		C348.48,340.056,358.776,324.216,364.056,315.504z"/>
	<path fill="#FCE0C5" d="M324.192,371.472c-6.864,0-12.144-5.544-12.144-12.144s5.544-12.145,12.144-12.145"/>
	<path fill="#FCE0C5" d="M466.752,371.472c6.864,0,12.145-5.544,12.145-12.144s-5.545-12.145-12.145-12.145V371.472z"/>
	<circle fill="#020202" cx="365.904" cy="361.704" r="7.92"/>
	<circle fill="#020202" cx="426.624" cy="361.704" r="7.92"/>
	<g>
		<path fill="#FFFFFF" d="M396.528,415.56c15.048,0,27.191-12.144,27.191-27.191h-54.648
			C369.072,403.152,381.216,415.56,396.528,415.56z"/>
	</g>
</g>
<g>
	<path fill="#F4C99F" d="M588.984,342.96v27.72v3.96c0,39.864,50.424,72.336,72.336,72.336s72.336-32.472,72.336-72.336v-31.68
		v-2.64c0-39.864-32.473-72.336-72.336-72.336c-39.864,0-72.336,32.472-72.336,72.336V342.96z"/>
	<path fill="#F4C99F" d="M733.656,371.208c6.863,0,12.408-5.544,12.408-12.408s-5.545-12.408-12.408-12.408"/>
	<path fill="#F4C99F" d="M588.984,371.208c-6.864,0-12.408-5.544-12.408-12.408s5.544-12.408,12.408-12.408V371.208z"/>
	<circle fill="#020202" cx="691.152" cy="361.176" r="8.184"/>
	<circle fill="#020202" cx="629.64" cy="361.176" r="8.184"/>
	<g>
		<path fill="#FFFFFF" d="M660.264,415.824c-15.312,0-27.72-12.408-27.72-27.72h55.44
			C687.984,403.416,675.576,415.824,660.264,415.824z"/>
	</g>
	<g>
		<path fill="#732622" d="M750.024,357.744c0-53.328-35.376-96.624-88.704-96.624s-88.704,43.296-88.704,96.624
			c0,33.528,9.239,36.696,35.376,54.12c0,13.992-17.424-84.216,0-84.216c51.479,0,54.647-24.816,54.647-24.816
			s10.824,24.816,52.8,24.816c9.505,0,6.864,83.951,0,83.951C741.048,393.912,750.024,391.008,750.024,357.744z"/>
	</g>
</g>
</svg>
