<?xml version="1.0" encoding="utf-8"?>
<!-- Generator: Adobe Illustrator 16.0.4, SVG Export Plug-In . SVG Version: 6.00 Build 0)  -->
<!DOCTYPE svg PUBLIC "-//W3C//DTD SVG 1.1//EN" "http://www.w3.org/Graphics/SVG/1.1/DTD/svg11.dtd">
<svg version="1.1" id="Layer_1" xmlns="http://www.w3.org/2000/svg" xmlns:xlink="http://www.w3.org/1999/xlink" x="0px" y="0px"
	 width="792px" height="612px" viewBox="0 0 792 612" enable-background="new 0 0 792 612" xml:space="preserve">
<g>
	<path fill="#FEF37D" d="M160.59,356.786c-2.62,36.68-23.58,188.641-51.527,193.009c-27.946,4.364,199.993,0,199.993,0"/>
	<path fill="#FEF37D" d="M632.189,356.786c2.616,36.68,23.576,188.641,51.523,193.009c27.947,4.364-208.725,0-208.725,0"/>
	<path fill="#FED7AC" d="M633.062,259.848v90.826v13.101c0,130.126-165.061,235.8-235.8,235.8
		c-70.74,0-235.799-105.674-235.799-235.8V259.848v-8.732c0-130.127,105.674-235.799,235.799-235.799
		c130.126,0,235.8,105.672,235.8,235.799V259.848z"/>
	<path fill="#FED7AC" d="M161.462,351.547c-22.706,0-40.172-18.34-40.172-40.172s18.34-40.175,40.172-40.175"/>
	<path fill="#FED7AC" d="M633.062,351.547c22.704,0,40.172-18.34,40.172-40.172s-18.34-40.175-40.172-40.175V351.547z"/>
	<circle fill="#030303" cx="299.45" cy="319.235" r="26.2"/>
	<path fill="#030303" d="M500.312,293.035c14.473,0,26.2,11.73,26.2,26.199c0,14.47-11.728,26.2-26.2,26.2
		c-14.466,0-26.199-11.73-26.199-26.2C474.113,304.765,485.847,293.035,500.312,293.035z"/>
	<g>
		<path fill="#FFFFFF" d="M400.754,497.393c49.783,0,89.954-40.172,89.954-89.951H309.929
			C309.929,456.348,350.103,497.393,400.754,497.393z"/>
	</g>
	<g>
		<g>
			<g>
				<path fill="#FEF37D" d="M476.736,171.642l13.097-16.592c0,0,27.075,99.559,128.381,103.926c0.872,0,7.86,0,14.848,0.873v-0.873
					c0-135.367-105.674-244.533-235.8-244.533c-130.125,0-234.926,109.166-235.799,243.658c4.368,0,7.86,0,8.734,0
					C349.229,256.355,436.562,216.181,476.736,171.642z"/>
			</g>
		</g>
	</g>
</g>
</svg>
