<?xml version="1.0" encoding="UTF-8" standalone="no"?>
<!-- Generator: Adobe Illustrator 16.0.4, SVG Export Plug-In . SVG Version: 6.00 Build 0)  -->

<svg
   xmlns:dc="http://purl.org/dc/elements/1.1/"
   xmlns:cc="http://creativecommons.org/ns#"
   xmlns:rdf="http://www.w3.org/1999/02/22-rdf-syntax-ns#"
   xmlns:svg="http://www.w3.org/2000/svg"
   xmlns="http://www.w3.org/2000/svg"
   xmlns:sodipodi="http://sodipodi.sourceforge.net/DTD/sodipodi-0.dtd"
   xmlns:inkscape="http://www.inkscape.org/namespaces/inkscape"
   version="1.1"
   id="Layer_1"
   x="0px"
   y="0px"
   width="792"
   height="792"
   viewBox="0 0 792 792"
   enable-background="new 0 0 792 612"
   xml:space="preserve"
   inkscape:version="0.91 r13725"
   sodipodi:docname="girl.svg"><metadata
     id="metadata62"><rdf:RDF><cc:Work
         rdf:about=""><dc:format>image/svg+xml</dc:format><dc:type
           rdf:resource="http://purl.org/dc/dcmitype/StillImage" /><dc:title></dc:title></cc:Work></rdf:RDF></metadata><defs
     id="defs60" /><sodipodi:namedview
     pagecolor="#ffffff"
     bordercolor="#666666"
     borderopacity="1"
     objecttolerance="10"
     gridtolerance="10"
     guidetolerance="10"
     inkscape:pageopacity="0"
     inkscape:pageshadow="2"
     inkscape:window-width="1082"
     inkscape:window-height="854"
     id="namedview58"
     showgrid="false"
     inkscape:zoom="0.37626263"
     inkscape:cx="396"
     inkscape:cy="306"
     inkscape:window-x="394"
     inkscape:window-y="113"
     inkscape:window-maximized="0"
     inkscape:current-layer="Layer_1" /><g
     id="g30"
     transform="matrix(1.3211371,0,0,1.3211371,-132.30185,-8.54577)"><path
       d="m 160.59,356.786 c -2.62,36.68 -23.58,188.641 -51.527,193.009 -27.946,4.364 199.993,0 199.993,0"
       id="path32"
       inkscape:connector-curvature="0"
       style="fill:#fef37d" /><path
       d="m 632.189,356.786 c 2.616,36.68 23.576,188.641 51.523,193.009 27.947,4.364 -208.725,0 -208.725,0"
       id="path34"
       inkscape:connector-curvature="0"
       style="fill:#fef37d" /><path
       d="m 633.062,259.848 0,90.826 0,13.101 c 0,130.126 -165.061,235.8 -235.8,235.8 -70.74,0 -235.799,-105.674 -235.799,-235.8 l 0,-103.927 0,-8.732 c 0,-130.127 105.674,-235.799 235.799,-235.799 130.126,0 235.8,105.672 235.8,235.799 l 0,8.732 z"
       id="path36"
       inkscape:connector-curvature="0"
       style="fill:#fed7ac" /><path
       d="m 161.462,351.547 c -22.706,0 -40.172,-18.34 -40.172,-40.172 0,-21.832 18.34,-40.175 40.172,-40.175"
       id="path38"
       inkscape:connector-curvature="0"
       style="fill:#fed7ac" /><path
       d="m 633.062,351.547 c 22.704,0 40.172,-18.34 40.172,-40.172 0,-21.832 -18.34,-40.175 -40.172,-40.175 l 0,80.347 z"
       id="path40"
       inkscape:connector-curvature="0"
       style="fill:#fed7ac" /><circle
       cx="299.45001"
       cy="319.23499"
       r="26.200001"
       id="circle42"
       style="fill:#030303" /><path
       d="m 500.312,293.035 c 14.473,0 26.2,11.73 26.2,26.199 0,14.47 -11.728,26.2 -26.2,26.2 -14.466,0 -26.199,-11.73 -26.199,-26.2 0,-14.469 11.734,-26.199 26.199,-26.199 z"
       id="path44"
       inkscape:connector-curvature="0"
       style="fill:#030303" /><g
       id="g46"><path
         d="m 400.754,497.393 c 49.783,0 89.954,-40.172 89.954,-89.951 l -180.779,0 c 0,48.906 40.174,89.951 90.825,89.951 z"
         id="path48"
         inkscape:connector-curvature="0"
         style="fill:#ffffff" /></g><g
       id="g50"><g
         id="g52"><g
           id="g54"><path
             d="m 476.736,171.642 13.097,-16.592 c 0,0 27.075,99.559 128.381,103.926 0.872,0 7.86,0 14.848,0.873 l 0,-0.873 c 0,-135.367 -105.674,-244.533 -235.8,-244.533 -130.125,0 -234.926,109.166 -235.799,243.658 4.368,0 7.86,0 8.734,0 179.032,-1.746 266.365,-41.92 306.539,-86.459 z"
             id="path56"
             inkscape:connector-curvature="0"
             style="fill:#fef37d" /></g></g></g></g></svg>