<?xml version="1.0" encoding="utf-8"?>
<!-- Generator: Adobe Illustrator 16.0.4, SVG Export Plug-In . SVG Version: 6.00 Build 0)  -->
<!DOCTYPE svg PUBLIC "-//W3C//DTD SVG 1.1//EN" "http://www.w3.org/Graphics/SVG/1.1/DTD/svg11.dtd">
<svg version="1.1" id="Layer_1" xmlns="http://www.w3.org/2000/svg" xmlns:xlink="http://www.w3.org/1999/xlink" x="0px" y="0px"
	 width="792px" height="612px" viewBox="0 0 792 612" enable-background="new 0 0 792 612" xml:space="preserve">
<g>
	<path fill="#FBE0C5" d="M634.646,259.991v91.742v13.231c0,131.438-166.721,238.177-238.174,238.177
		S158.296,496.401,158.296,364.964V259.991v-8.82c0-131.439,106.739-238.176,238.176-238.176
		c131.436,0,238.174,106.737,238.174,238.176V259.991z"/>
	<path fill="#343132" d="M301.201,151.489c43.225,43.223,151.728,81.157,333.445,82.919
		C627.589,109.146,526.146,10.348,399.117,10.348c-49.398,0-96.152,14.996-134.083,41.461
		C261.506,80.036,266.799,117.968,301.201,151.489"/>
	<path fill="#343132" d="M291.499,165.603c-34.404-33.521-41.461-75.864-38.814-104.091
		c-62.632,42.342-94.388,114.677-94.388,195.833C239.452,247.64,273.855,194.712,291.499,165.603z"/>
	<path fill="#FBE0C5" d="M158.296,352.613c-22.935,0-40.578-18.524-40.578-40.576c0-22.052,18.524-40.58,40.578-40.58"/>
	<path fill="#FBE0C5" d="M634.646,352.613c22.937,0,40.58-18.524,40.58-40.576c0-22.052-18.527-40.58-40.58-40.58V352.613z"/>
	<circle fill="#030303" cx="297.672" cy="319.976" r="26.464"/>
	<circle fill="#030303" cx="500.563" cy="319.976" r="26.464"/>
	<g>
		<path fill="#FFFFFF" d="M400.001,499.929c50.281,0,90.857-40.576,90.857-90.857H308.258
			C308.258,458.472,348.836,499.929,400.001,499.929z"/>
	</g>
</g>
</svg>
