<?xml version="1.0" encoding="UTF-8" standalone="no"?>
<!-- Generator: Adobe Illustrator 18.1.1, SVG Export Plug-In . SVG Version: 6.00 Build 0)  -->

<svg
   xmlns:dc="http://purl.org/dc/elements/1.1/"
   xmlns:cc="http://creativecommons.org/ns#"
   xmlns:rdf="http://www.w3.org/1999/02/22-rdf-syntax-ns#"
   xmlns:svg="http://www.w3.org/2000/svg"
   xmlns="http://www.w3.org/2000/svg"
   xmlns:sodipodi="http://sodipodi.sourceforge.net/DTD/sodipodi-0.dtd"
   xmlns:inkscape="http://www.inkscape.org/namespaces/inkscape"
   version="1.1"
   id="Layer_1"
   x="0px"
   y="0px"
   viewBox="0 0 283.465 283.465"
   style="enable-background:new 0 0 283.465 283.465;"
   xml:space="preserve"
   inkscape:version="0.91 r13725"
   sodipodi:docname="man_highdetail.svg"><metadata
     id="metadata146"><rdf:RDF><cc:Work
         rdf:about=""><dc:format>image/svg+xml</dc:format><dc:type
           rdf:resource="http://purl.org/dc/dcmitype/StillImage" /></cc:Work></rdf:RDF></metadata><defs
     id="defs144" /><sodipodi:namedview
     pagecolor="#ffffff"
     bordercolor="#666666"
     borderopacity="1"
     objecttolerance="10"
     gridtolerance="10"
     guidetolerance="10"
     inkscape:pageopacity="0"
     inkscape:pageshadow="2"
     inkscape:window-width="1327"
     inkscape:window-height="924"
     id="namedview142"
     showgrid="false"
     inkscape:zoom="0.58870479"
     inkscape:cx="64.551604"
     inkscape:cy="303.43362"
     inkscape:window-x="57"
     inkscape:window-y="34"
     inkscape:window-maximized="0"
     inkscape:current-layer="Layer_1" /><linearGradient
     id="SVGID_1_"
     gradientUnits="userSpaceOnUse"
     x1="135.315"
     y1="160.7678"
     x2="135.315"
     y2="270.8927"><stop
       offset="0"
       style="stop-color:#C69671"
       id="stop4" /><stop
       offset="0.0785"
       style="stop-color:#CB9C78"
       id="stop6" /><stop
       offset="0.3485"
       style="stop-color:#D7AC89"
       id="stop8" /><stop
       offset="0.6421"
       style="stop-color:#DEB593"
       id="stop10" /><stop
       offset="1"
       style="stop-color:#E0B896"
       id="stop12" /></linearGradient><g
     id="g18"
     transform="matrix(1.4004922,0,0,1.4004922,-45.447935,5.5105633)"><path
       style="fill:#d1a686"
       d="M 89.306,108.053 C 88.274,95.874 83.38,86.363 78.376,86.811 c -5.004,0.447 -8.223,10.683 -7.191,22.862 1.032,12.179 5.926,21.69 10.93,21.242 5.004,-0.448 8.223,-10.683 7.191,-22.862 z"
       id="path20"
       inkscape:connector-curvature="0" /><path
       style="fill:#d1a686"
       d="m 181.667,108.053 c 1.032,-12.179 5.926,-21.69 10.93,-21.242 5.004,0.447 8.223,10.683 7.191,22.862 -1.032,12.179 -5.926,21.69 -10.93,21.242 -5.003,-0.448 -8.223,-10.683 -7.191,-22.862 z"
       id="path22"
       inkscape:connector-curvature="0" /></g><path
     style="fill:#e0b896"
     d="m 148.9978,44.923214 0.0196,-0.296904 c -1.59936,0 -3.17071,0.02521 -4.71685,0.07282 -1.54615,-0.04762 -3.1175,-0.07282 -4.71686,-0.07282 l 0.0196,0.296904 C 95.549369,47.746606 74.483168,70.646053 74.483168,100.6768 c 0,32.09789 0,102.52164 0,102.52164 14.151971,28.7437 50.004572,62.75885 50.004572,62.75885 l 19.81277,0 19.81275,0 c 0,0 35.8512,-34.01374 50.00458,-62.75885 0,0 0,-70.42375 0,-102.52164 -0.001,-30.032147 -21.0662,-52.930194 -65.12008,-55.753586 z"
     id="path26"
     inkscape:connector-curvature="0" /><g
     id="g28"
     transform="matrix(1.4004922,0,0,1.4004922,-45.447935,5.5105633)"><linearGradient
       id="SVGID_2_"
       gradientUnits="userSpaceOnUse"
       x1="128.5536"
       y1="99.909203"
       x2="94.614998"
       y2="99.909203"><stop
         offset="0"
         style="stop-color:#C69671"
         id="stop31" /><stop
         offset="1"
         style="stop-color:#E0B896"
         id="stop33" /></linearGradient><path
       style="fill:url(#SVGID_2_)"
       d="m 102.344,86.08 c 22.973,-1.447 47.406,13.162 -5.046,27.757 l -2.683,-24.742 7.729,-3.015 z"
       id="path35"
       inkscape:connector-curvature="0" /><linearGradient
       id="SVGID_3_"
       gradientUnits="userSpaceOnUse"
       x1="80.669403"
       y1="99.909203"
       x2="46.730801"
       y2="99.909203"
       gradientTransform="matrix(-1,0,0,1,223.0891,0)"><stop
         offset="0"
         style="stop-color:#C69671"
         id="stop38" /><stop
         offset="1"
         style="stop-color:#E0B896"
         id="stop40" /></linearGradient><path
       style="fill:url(#SVGID_3_)"
       d="m 168.629,86.08 c -22.973,-1.447 -47.406,13.162 5.046,27.757 l 2.683,-24.742 -7.729,-3.015 z"
       id="path42"
       inkscape:connector-curvature="0" /></g><g
     id="g44"
     transform="matrix(1.4004922,0,0,1.4004922,-45.447935,5.5105633)"><path
       style="fill:#666666"
       d="m 94.328,90.057 c 0,0 2.633,-4.15 9.654,-7.955 0,0 14.627,1.383 23.403,3.805 l -2.925,4.842 c -10e-4,-10e-4 -21.063,-8.301 -30.132,-0.692 z"
       id="path46"
       inkscape:connector-curvature="0" /><path
       style="fill:#666666"
       d="m 176.645,90.057 c 0,0 -2.633,-4.15 -9.654,-7.955 0,0 -14.627,1.383 -23.403,3.805 l 2.925,4.842 c 0.001,-10e-4 21.063,-8.301 30.132,-0.692 z"
       id="path48"
       inkscape:connector-curvature="0" /></g><g
     id="g50"
     transform="matrix(1.4004922,0,0,1.4004922,-45.447935,5.5105633)"><g
       id="g52"><path
         d="m 99.171,101.446 c 0,0 7.772,-13.401 22.513,-3.216 0,0 -11.525,-14.473 -22.513,3.216 z"
         id="path54"
         inkscape:connector-curvature="0" /><path
         d="m 99.171,99.57 c 0,0 9.381,-17.421 23.049,-3.752 0,0 -12.329,-11.793 -23.049,3.752 z"
         id="path56"
         inkscape:connector-curvature="0" /><path
         d="m 105.519,94.977 c -0.116,0.425 -0.184,0.871 -0.184,1.333 0,2.791 2.262,5.053 5.053,5.053 2.791,0 5.053,-2.262 5.053,-5.053 0,-1.003 -0.296,-1.936 -0.801,-2.722 l -9.121,1.389 z"
         id="path58"
         inkscape:connector-curvature="0" /><path
         style="opacity:0.4;fill:#d1a686"
         d="m 120.88,102.25 c 0,0 -10.721,12.329 -20.369,0 0,0 9.38,6.701 20.369,0 z"
         id="path60"
         inkscape:connector-curvature="0" /></g><g
       id="g62"><path
         d="m 171.803,101.446 c 0,0 -7.772,-13.401 -22.513,-3.216 -0.001,0 11.524,-14.473 22.513,3.216 z"
         id="path64"
         inkscape:connector-curvature="0" /><path
         d="m 171.803,99.57 c 0,0 -9.381,-17.421 -23.049,-3.752 -0.001,0 12.328,-11.793 23.049,3.752 z"
         id="path66"
         inkscape:connector-curvature="0" /><path
         d="m 165.455,94.977 c 0.116,0.425 0.184,0.871 0.184,1.333 0,2.791 -2.262,5.053 -5.053,5.053 -2.791,0 -5.053,-2.262 -5.053,-5.053 0,-1.003 0.296,-1.936 0.801,-2.722 l 9.121,1.389 z"
         id="path68"
         inkscape:connector-curvature="0" /><path
         style="opacity:0.4;fill:#d1a686"
         d="m 150.094,102.25 c 0,0 10.721,12.329 20.369,0 0,0 -9.381,6.701 -20.369,0 z"
         id="path70"
         inkscape:connector-curvature="0" /></g></g><g
     style="opacity:0.7"
     id="g72"
     transform="matrix(1.4004922,0,0,1.4004922,-45.447935,5.5105633)"><linearGradient
       id="SVGID_4_"
       gradientUnits="userSpaceOnUse"
       x1="99.194801"
       y1="102.8879"
       x2="99.194801"
       y2="178.907"><stop
         offset="0"
         style="stop-color:#C69671"
         id="stop75" /><stop
         offset="1"
         style="stop-color:#E0B896"
         id="stop77" /></linearGradient><path
       style="fill:url(#SVGID_4_)"
       d="M 106.607,118.547 85.635,102.888 c 0,20.232 0,39.524 0,39.524 6.328,12.995 18.731,27.481 27.12,36.495 l -6.148,-60.36 z"
       id="path79"
       inkscape:connector-curvature="0" /><linearGradient
       id="SVGID_5_"
       gradientUnits="userSpaceOnUse"
       x1="171.77859"
       y1="102.888"
       x2="171.77859"
       y2="178.9071"><stop
         offset="0"
         style="stop-color:#C69671"
         id="stop82" /><stop
         offset="1"
         style="stop-color:#E0B896"
         id="stop84" /></linearGradient><path
       style="fill:url(#SVGID_5_)"
       d="m 158.219,178.907 c 8.389,-9.014 20.792,-23.5 27.12,-36.495 0,0 0,-19.291 0,-39.524 l -20.972,15.659 -6.148,60.36 z"
       id="path86"
       inkscape:connector-curvature="0" /></g><linearGradient
     id="SVGID_6_"
     gradientUnits="userSpaceOnUse"
     x1="135.4867"
     y1="198.618"
     x2="135.4867"
     y2="99.7066"
     gradientTransform="matrix(1.4004922,0,0,1.4004922,-45.447935,5.5105633)"><stop
       offset="0"
       style="stop-color:#E5E5E5"
       id="stop89" /><stop
       offset="1"
       style="stop-color:#989898"
       id="stop91" /></linearGradient><path
     style="fill:url(#SVGID_6_)"
     d="m 213.76776,145.14944 c -14.89284,19.09291 -5.05018,47.03553 -5.05018,47.03553 l -16.65184,16.62944 -15.09311,-16.99356 c -3.71971,6.0025 -13.01758,-3.63709 -27.71014,-3.45643 l -4.96334,2.78559 -4.96335,-2.78559 c -14.69116,-0.18206 -23.99043,9.45753 -27.71013,3.45643 L 96.532561,208.81441 79.880705,192.18497 c 0,0 9.842658,-27.94262 -5.050167,-47.03553 l -0.551798,0.25069 0,63.33585 c 0,0 2.167962,18.55233 32.52503,47.47249 15.96281,15.20654 37.49397,11.45882 37.49397,27.46506 0,-16.00624 21.53117,-12.25852 37.49398,-27.46506 30.35707,-28.92016 32.52503,-47.47249 32.52503,-47.47249 l 0,-63.33585 -0.54899,-0.25069 z m -52.57308,108.33087 -9.29646,-16.77509 10.2824,-11.87057 -35.76015,0 10.2824,11.87057 -9.29646,16.77509 c 0,0 0.72265,-27.82918 -21.32249,-28.7381 l 1.08398,-6.72936 -1.92008,-1.28846 4.48998,-13.13661 c 14.47549,4.12725 21.60259,3.1483 21.60259,3.1483 l 1.85986,-3.81914 0.18626,4.36534 10.91404,2.54609 10.91403,-2.54609 0.18626,-4.36534 1.85986,3.81914 c 0,0 7.1271,0.97895 21.60259,-3.1483 l 4.48998,13.13661 -1.92007,1.28846 1.08398,6.72936 c -22.04515,0.90892 -21.3225,28.7381 -21.3225,28.7381 z"
     id="path93"
     inkscape:connector-curvature="0" /><path
     style="fill:#c6805d"
     d="m 154.31406,207.76405 -10.01351,2.76177 -10.01352,-2.76177 c -19.3366,1.72681 -24.86153,-4.48858 -24.86153,-4.48858 7.94218,12.43076 19.6825,7.25174 19.6825,7.25174 l 15.19394,4.48858 15.19394,-4.48858 c 0,0 11.74034,5.17902 19.68252,-7.25174 -0.003,0 -5.52774,6.21539 -24.86434,4.48858 z"
     id="path95"
     inkscape:connector-curvature="0" /><linearGradient
     id="SVGID_7_"
     gradientUnits="userSpaceOnUse"
     x1="135.4867"
     y1="183.3311"
     x2="135.4867"
     y2="130.5622"
     gradientTransform="matrix(1.4004922,0,0,1.4004922,-45.447935,5.5105633)"><stop
       offset="0"
       style="stop-color:#E5E5E5"
       id="stop98" /><stop
       offset="1"
       style="stop-color:#989898"
       id="stop100" /></linearGradient><path
     style="opacity:0.5;fill:url(#SVGID_7_)"
     d="m 192.86402,238.81856 c 8.35532,-11.3692 1.4537,-16.69947 1.4537,-16.69947 4.72247,-5.6846 -4.35973,-8.5276 -4.35973,-8.5276 1.67079,-1.78142 2.50689,-3.64128 2.79958,-5.46892 l -0.69044,0.69044 -15.0931,-16.99357 c -3.71971,6.00251 -13.01758,-3.63708 -27.71014,-3.45641 l -4.96334,2.78557 -4.96335,-2.78557 c -14.69116,-0.18206 -23.99042,9.45752 -27.71014,3.45641 l -15.093096,16.99357 -0.690443,-0.69044 c 0.292695,1.82764 1.128789,3.6861 2.799585,5.46892 0,0 -9.082191,2.843 -4.359736,8.5276 0,0 -6.903024,5.33027 1.453706,16.69947 0,0 -1.666586,0.90891 -2.896218,2.63012 3.823353,4.5418 8.419762,9.47574 13.965712,14.75979 2.58531,2.46346 5.31626,4.42276 8.07944,6.05573 -1.92427,-4.51799 -3.93259,-11.28096 -0.98454,-15.27377 0,0 2.17916,7.46182 7.26575,7.46182 0,0 -4.89613,-7.35818 4.22668,-13.87887 -2.41305,-7.41281 -7.70411,-15.3522 -19.30998,-15.83117 l 1.08398,-6.72936 -1.92008,-1.28846 4.48999,-13.13661 c 14.47548,4.12725 21.60258,3.1483 21.60258,3.1483 l 1.85986,-3.81914 0.18626,4.36534 10.91404,2.54609 10.91403,-2.54609 0.18626,-4.36534 1.85986,3.81914 c 0,0 7.1271,0.97895 21.60259,-3.1483 l 4.48998,13.13661 -1.92007,1.28846 1.08398,6.72936 c -11.60588,0.47897 -16.89694,8.41836 -19.30999,15.83117 9.12281,6.52069 4.22669,13.87887 4.22669,13.87887 5.08658,0 7.26574,-7.46182 7.26574,-7.46182 2.94805,3.99281 0.94114,10.75578 -0.98454,15.27377 2.76177,-1.63297 5.49413,-3.59367 8.07944,-6.05573 5.54595,-5.28405 10.14237,-10.21659 13.96571,-14.75979 -1.22963,-1.72121 -2.89621,-2.63012 -2.89621,-2.63012 z"
     id="path102"
     inkscape:connector-curvature="0" /><g
     id="g104"
     transform="matrix(1.4004922,0,0,1.4004922,-45.447935,5.5105633)"><g
       id="g106"><linearGradient
         id="SVGID_8_"
         gradientUnits="userSpaceOnUse"
         x1="135.48669"
         y1="134.71609"
         x2="135.48669"
         y2="91.3097"><stop
           offset="0"
           style="stop-color:#C69671"
           id="stop109" /><stop
           offset="1"
           style="stop-color:#E0B896"
           id="stop111" /></linearGradient><path
         style="fill:url(#SVGID_8_)"
         d="m 149.713,123.626 c -0.137,-2.259 -2.491,-4.221 -5.967,-5.431 0.226,-2.335 0.309,-4.781 0.214,-7.282 -0.43,-11.272 -4.206,-19.602 -8.472,-19.602 -4.266,0 -8.042,8.331 -8.472,19.602 -0.095,2.501 -0.012,4.947 0.214,7.282 -3.477,1.21 -5.831,3.172 -5.967,5.431 -0.182,3.002 3.584,5.617 9.07,6.657 1.429,2.779 3.211,4.433 5.156,4.433 1.946,0 3.727,-1.654 5.156,-4.433 5.483,-1.041 9.25,-3.655 9.068,-6.657 z"
         id="path113"
         inkscape:connector-curvature="0" /><path
         style="opacity:0.1;fill:#ffffff"
         d="m 140.422,116.325 c -0.145,-6.662 -2.423,-11.784 -5.096,-11.784 -2.673,0 -4.959,5.121 -5.114,11.784 -0.164,7.077 2.113,13.145 5.095,13.145 2.982,0 5.268,-6.068 5.115,-13.145 z"
         id="path115"
         inkscape:connector-curvature="0" /></g><path
       style="opacity:0.3;fill:#d1a686"
       d="m 145.277,126.512 -1.81,-7.371 -1.185,7.371 -13.59,0 -1.185,-7.371 -1.81,7.371 -3.322,0 c 1.487,1.715 4.349,3.087 7.956,3.771 1.429,2.779 3.211,4.433 5.156,4.433 1.945,0 3.727,-1.654 5.156,-4.433 3.606,-0.684 6.468,-2.056 7.956,-3.771 l -3.322,0 z"
       id="path117"
       inkscape:connector-curvature="0" /><path
       style="fill:#42210b"
       d="m 130.685,130.007 c -0.233,0.397 -1.798,0.09 -3.494,-0.686 -1.696,-0.776 -2.883,-1.726 -2.649,-2.123 0.233,-0.397 1.798,-0.09 3.494,0.686 1.696,0.776 2.882,1.727 2.649,2.123 z m 9.603,0 c 0.233,0.397 1.798,0.09 3.494,-0.686 1.696,-0.776 2.883,-1.726 2.649,-2.123 -0.233,-0.397 -1.798,-0.09 -3.494,0.686 -1.696,0.776 -2.882,1.727 -2.649,2.123 z"
       id="path119"
       inkscape:connector-curvature="0" /></g><linearGradient
     id="SVGID_9_"
     gradientUnits="userSpaceOnUse"
     x1="135.4867"
     y1="3.3521"
     x2="135.4867"
     y2="99.87"
     gradientTransform="matrix(1.4004922,0,0,1.4004922,-45.447935,5.5105633)"><stop
       offset="0.683"
       style="stop-color:#E5E5E5"
       id="stop122" /><stop
       offset="1"
       style="stop-color:#989898"
       id="stop124" /></linearGradient><path
     style="fill:url(#SVGID_9_)"
     d="m 215.79286,65.293373 10.83702,-8.19428 -12.35235,5.812042 11.62549,-15.621089 -10.89862,8.719464 2.54329,-18.164383 -4.88072,7.508038 -0.37253,-9.089194 c -19.60129,-19.09431 -44.1071,-24.24672 -57.70028,-25.595395 l -0.62182,19.909397 -5.49413,-20.325343 c -2.64973,-0.09103 -4.17906,-0.01821 -4.17906,-0.01821 0,0 -39.2712,-1.950885 -67.993901,26.029548 l -0.617611,15.070696 -2.364034,-11.674503 0.726853,15.62109 -8.355338,-9.444919 5.449319,15.62109 -10.535897,-3.995604 7.086489,6.65794 -7.74893,-1.778626 8.261511,64.145338 6.718156,18.89123 c 0,0 -3.376587,-25.18785 10.112954,-32.45359 0,0 -27.938417,-69.266944 59.260429,-58.610599 87.20023,-10.656345 59.26042,58.610599 59.26042,58.610599 13.48955,7.26574 10.11296,32.45359 10.11296,32.45359 l 6.71816,-18.89123 8.2615,-64.145338 -12.85933,2.952238 z"
     id="path126"
     inkscape:connector-curvature="0" /><path
     style="fill:#989898"
     d="m 155.43446,243.08726 -3.53765,-6.38204 10.28242,-11.87057 -35.75876,0 10.2824,11.87057 -1.32346,2.38783 3.49562,6.03753 2.02792,-7.70831 c 1.62318,10.5485 8.11445,3.24634 8.11445,3.24634 l -0.40614,6.89742 c 0,-0.001 4.35833,-1.35707 6.8232,-4.47877 z"
     id="path128"
     inkscape:connector-curvature="0" /><ellipse
     style="opacity:0.2;fill:#ffffff"
     cx="144.30055"
     cy="220.7872"
     rx="12.425166"
     ry="2.0279126"
     id="ellipse130" /></svg>