<?xml version="1.0" encoding="iso-8859-1"?>
<!-- Generator: Adobe Illustrator 18.1.1, SVG Export Plug-In . SVG Version: 6.00 Build 0)  -->
<svg version="1.1" id="Layer_1" xmlns="http://www.w3.org/2000/svg" xmlns:xlink="http://www.w3.org/1999/xlink" x="0px" y="0px"
	 viewBox="0 0 283.465 283.465" style="enable-background:new 0 0 283.465 283.465;" xml:space="preserve">
<linearGradient id="SVGID_1_" gradientUnits="userSpaceOnUse" x1="135.315" y1="160.7678" x2="135.315" y2="270.8927">
	<stop  offset="0" style="stop-color:#C69671"/>
	<stop  offset="0.0785" style="stop-color:#CB9C78"/>
	<stop  offset="0.3485" style="stop-color:#D7AC89"/>
	<stop  offset="0.6421" style="stop-color:#DEB593"/>
	<stop  offset="1" style="stop-color:#E0B896"/>
</linearGradient>
<rect x="106.483" y="160.768" style="fill:url(#SVGID_1_);" width="57.663" height="110.125"/>
<path style="opacity:0.4;fill:#D1A686;" d="M164.147,121.474h-57.663v68.661c7.542,17.907,17.677,28.893,28.832,28.893
	c11.154,0,21.29-10.986,28.832-28.893V121.474z"/>
<g>
	<path style="fill:#D1A686;" d="M89.306,108.053c-1.032-12.179-5.926-21.69-10.93-21.242c-5.004,0.447-8.223,10.683-7.191,22.862
		s5.926,21.69,10.93,21.242C87.119,130.467,90.338,120.232,89.306,108.053z"/>
	<path style="fill:#D1A686;" d="M181.667,108.053c1.032-12.179,5.926-21.69,10.93-21.242c5.004,0.447,8.223,10.683,7.191,22.862
		c-1.032,12.179-5.926,21.69-10.93,21.242C183.855,130.467,180.635,120.232,181.667,108.053z"/>
</g>
<path style="fill:#F1D2C1;" d="M-103.736-74.734"/>
<path style="fill:#E0B896;" d="M138.841,28.142l0.014-0.212c-1.142,0-2.264,0.018-3.368,0.052c-1.104-0.034-2.226-0.052-3.368-0.052
	l0.014,0.212c-31.456,2.016-46.498,18.367-46.498,39.81c0,22.919,0,73.204,0,73.204c10.105,20.524,35.705,44.812,35.705,44.812
	h14.147h14.147c0,0,25.599-24.287,35.705-44.812c0,0,0-50.285,0-73.204C185.338,46.508,170.297,30.158,138.841,28.142z"/>
<g>
	<linearGradient id="SVGID_2_" gradientUnits="userSpaceOnUse" x1="128.5536" y1="99.9092" x2="94.615" y2="99.9092">
		<stop  offset="0" style="stop-color:#C69671"/>
		<stop  offset="1" style="stop-color:#E0B896"/>
	</linearGradient>
	<path style="fill:url(#SVGID_2_);" d="M102.344,86.08c22.973-1.447,47.406,13.162-5.046,27.757l-2.683-24.742L102.344,86.08z"/>
	
		<linearGradient id="SVGID_3_" gradientUnits="userSpaceOnUse" x1="80.6694" y1="99.9092" x2="46.7308" y2="99.9092" gradientTransform="matrix(-1 0 0 1 223.0891 0)">
		<stop  offset="0" style="stop-color:#C69671"/>
		<stop  offset="1" style="stop-color:#E0B896"/>
	</linearGradient>
	<path style="fill:url(#SVGID_3_);" d="M168.629,86.08c-22.973-1.447-47.406,13.162,5.046,27.757l2.683-24.742L168.629,86.08z"/>
</g>
<g>
	<path style="fill:#666666;" d="M94.328,90.057c0,0,2.633-4.15,9.654-7.955c0,0,14.627,1.383,23.403,3.805l-2.925,4.842
		C124.459,90.748,103.397,82.448,94.328,90.057z"/>
	<path style="fill:#666666;" d="M176.645,90.057c0,0-2.633-4.15-9.654-7.955c0,0-14.627,1.383-23.403,3.805l2.925,4.842
		C146.514,90.748,167.576,82.448,176.645,90.057z"/>
</g>
<g>
	<g>
		<path d="M99.171,101.446c0,0,7.772-13.401,22.513-3.216C121.684,98.23,110.159,83.757,99.171,101.446z"/>
		<path d="M99.171,99.57c0,0,9.381-17.421,23.049-3.752C122.22,95.818,109.891,84.025,99.171,99.57z"/>
		<path d="M105.519,94.977c-0.116,0.425-0.184,0.871-0.184,1.333c0,2.791,2.262,5.053,5.053,5.053s5.053-2.262,5.053-5.053
			c0-1.003-0.296-1.936-0.801-2.722L105.519,94.977z"/>
		<path style="opacity:0.4;fill:#D1A686;" d="M120.88,102.25c0,0-10.721,12.329-20.369,0
			C100.511,102.25,109.891,108.951,120.88,102.25z"/>
	</g>
	<g>
		<path d="M171.803,101.446c0,0-7.772-13.401-22.513-3.216C149.289,98.23,160.814,83.757,171.803,101.446z"/>
		<path d="M171.803,99.57c0,0-9.381-17.421-23.049-3.752C148.753,95.818,161.082,84.025,171.803,99.57z"/>
		<path d="M165.455,94.977c0.116,0.425,0.184,0.871,0.184,1.333c0,2.791-2.262,5.053-5.053,5.053s-5.053-2.262-5.053-5.053
			c0-1.003,0.296-1.936,0.801-2.722L165.455,94.977z"/>
		<path style="opacity:0.4;fill:#D1A686;" d="M150.094,102.25c0,0,10.721,12.329,20.369,0
			C170.463,102.25,161.082,108.951,150.094,102.25z"/>
	</g>
</g>
<g style="opacity:0.7;">
	<linearGradient id="SVGID_4_" gradientUnits="userSpaceOnUse" x1="99.1948" y1="102.8879" x2="99.1948" y2="178.907">
		<stop  offset="0" style="stop-color:#C69671"/>
		<stop  offset="1" style="stop-color:#E0B896"/>
	</linearGradient>
	<path style="fill:url(#SVGID_4_);" d="M106.607,118.547l-20.972-15.659c0,20.232,0,39.524,0,39.524
		c6.328,12.995,18.731,27.481,27.12,36.495L106.607,118.547z"/>
	<linearGradient id="SVGID_5_" gradientUnits="userSpaceOnUse" x1="171.7786" y1="102.888" x2="171.7786" y2="178.9071">
		<stop  offset="0" style="stop-color:#C69671"/>
		<stop  offset="1" style="stop-color:#E0B896"/>
	</linearGradient>
	<path style="fill:url(#SVGID_5_);" d="M158.219,178.907c8.389-9.014,20.792-23.5,27.12-36.495c0,0,0-19.291,0-39.524
		l-20.972,15.659L158.219,178.907z"/>
</g>
<linearGradient id="SVGID_6_" gradientUnits="userSpaceOnUse" x1="135.4867" y1="198.618" x2="135.4867" y2="99.7066">
	<stop  offset="0" style="stop-color:#E5E5E5"/>
	<stop  offset="1" style="stop-color:#989898"/>
</linearGradient>
<path style="fill:url(#SVGID_6_);" d="M185.089,99.707c-10.634,13.633-3.606,33.585-3.606,33.585l-11.89,11.874l-10.777-12.134
	c-2.656,4.286-9.295-2.597-19.786-2.468l-3.544,1.989l-3.544-1.989c-10.49-0.13-17.13,6.753-19.786,2.468l-10.777,12.134
	l-11.89-11.874c0,0,7.028-19.952-3.606-33.585l-0.394,0.179v45.224c0,0,1.548,13.247,23.224,33.897
	c11.398,10.858,26.772,8.182,26.772,19.611c0-11.429,15.374-8.753,26.772-19.611c21.676-20.65,23.224-33.897,23.224-33.897V99.886
	L185.089,99.707z M147.55,177.059l-6.638-11.978l7.342-8.476H122.72l7.342,8.476l-6.638,11.978c0,0,0.516-19.871-15.225-20.52
	l0.774-4.805l-1.371-0.92l3.206-9.38c10.336,2.947,15.425,2.248,15.425,2.248l1.328-2.727l0.133,3.117l7.793,1.818l7.793-1.818
	l0.133-3.117l1.328,2.727c0,0,5.089,0.699,15.425-2.248l3.206,9.38l-1.371,0.92l0.774,4.805
	C147.034,157.188,147.55,177.059,147.55,177.059z"/>
<path style="fill:#C6805D;" d="M142.637,144.416l-7.15,1.972l-7.15-1.972c-13.807,1.233-17.752-3.205-17.752-3.205
	c5.671,8.876,14.054,5.178,14.054,5.178l10.849,3.205l10.849-3.205c0,0,8.383,3.698,14.054-5.178
	C160.389,141.211,156.444,145.649,142.637,144.416z"/>
<linearGradient id="SVGID_7_" gradientUnits="userSpaceOnUse" x1="135.4867" y1="183.3311" x2="135.4867" y2="130.5622">
	<stop  offset="0" style="stop-color:#E5E5E5"/>
	<stop  offset="1" style="stop-color:#989898"/>
</linearGradient>
<path style="opacity:0.5;fill:url(#SVGID_7_);" d="M170.163,166.59c5.966-8.118,1.038-11.924,1.038-11.924
	c3.372-4.059-3.113-6.089-3.113-6.089c1.193-1.272,1.79-2.6,1.999-3.905l-0.493,0.493l-10.777-12.134
	c-2.656,4.286-9.295-2.597-19.786-2.468l-3.544,1.989l-3.544-1.989c-10.49-0.13-17.13,6.753-19.786,2.468l-10.777,12.134
	l-0.493-0.493c0.209,1.305,0.806,2.632,1.999,3.905c0,0-6.485,2.03-3.113,6.089c0,0-4.929,3.806,1.038,11.924
	c0,0-1.19,0.649-2.068,1.878c2.73,3.243,6.012,6.766,9.972,10.539c1.846,1.759,3.796,3.158,5.769,4.324
	c-1.374-3.226-2.808-8.055-0.703-10.906c0,0,1.556,5.328,5.188,5.328c0,0-3.496-5.254,3.018-9.91
	c-1.723-5.293-5.501-10.962-13.788-11.304l0.774-4.805l-1.371-0.92l3.206-9.38c10.336,2.947,15.425,2.248,15.425,2.248l1.328-2.727
	l0.133,3.117l7.793,1.818l7.793-1.818l0.133-3.117l1.328,2.727c0,0,5.089,0.699,15.425-2.248l3.206,9.38l-1.371,0.92l0.774,4.805
	c-8.287,0.342-12.065,6.011-13.788,11.304c6.514,4.656,3.018,9.91,3.018,9.91c3.632,0,5.188-5.328,5.188-5.328
	c2.105,2.851,0.672,7.68-0.703,10.906c1.972-1.166,3.923-2.566,5.769-4.324c3.96-3.773,7.242-7.295,9.972-10.539
	C171.353,167.239,170.163,166.59,170.163,166.59z"/>
<g>
	<g>
		<linearGradient id="SVGID_8_" gradientUnits="userSpaceOnUse" x1="135.4867" y1="134.7161" x2="135.4867" y2="91.3097">
			<stop  offset="0" style="stop-color:#C69671"/>
			<stop  offset="1" style="stop-color:#E0B896"/>
		</linearGradient>
		<path style="fill:url(#SVGID_8_);" d="M149.713,123.626c-0.137-2.259-2.491-4.221-5.967-5.431
			c0.226-2.335,0.309-4.781,0.214-7.282c-0.43-11.272-4.206-19.602-8.472-19.602c-4.266,0-8.042,8.331-8.472,19.602
			c-0.095,2.501-0.012,4.947,0.214,7.282c-3.477,1.21-5.831,3.172-5.967,5.431c-0.182,3.002,3.584,5.617,9.07,6.657
			c1.429,2.779,3.211,4.433,5.156,4.433c1.946,0,3.727-1.654,5.156-4.433C146.128,129.242,149.895,126.628,149.713,123.626z"/>
		<path style="opacity:0.1;fill:#FFFFFF;" d="M140.422,116.325c-0.145-6.662-2.423-11.784-5.096-11.784
			c-2.673,0-4.959,5.121-5.114,11.784c-0.164,7.077,2.113,13.145,5.095,13.145C138.289,129.47,140.575,123.402,140.422,116.325z"/>
	</g>
	<path style="opacity:0.3;fill:#D1A686;" d="M145.277,126.512l-1.81-7.371l-1.185,7.371h-13.59l-1.185-7.371l-1.81,7.371h-3.322
		c1.487,1.715,4.349,3.087,7.956,3.771c1.429,2.779,3.211,4.433,5.156,4.433s3.727-1.654,5.156-4.433
		c3.606-0.684,6.468-2.056,7.956-3.771H145.277z"/>
	<path style="fill:#42210B;" d="M130.685,130.007c-0.233,0.397-1.798,0.09-3.494-0.686s-2.883-1.726-2.649-2.123
		c0.233-0.397,1.798-0.09,3.494,0.686C129.732,128.66,130.918,129.611,130.685,130.007z M140.288,130.007
		c0.233,0.397,1.798,0.09,3.494-0.686s2.883-1.726,2.649-2.123c-0.233-0.397-1.798-0.09-3.494,0.686
		C141.241,128.66,140.055,129.611,140.288,130.007z"/>
</g>
<linearGradient id="SVGID_9_" gradientUnits="userSpaceOnUse" x1="135.4867" y1="3.3521" x2="135.4867" y2="99.87">
	<stop  offset="0.683" style="stop-color:#E5E5E5"/>
	<stop  offset="1" style="stop-color:#989898"/>
</linearGradient>
<path style="fill:url(#SVGID_9_);" d="M186.535,42.687l7.738-5.851l-8.82,4.15l8.301-11.154l-7.782,6.226l1.816-12.97l-3.485,5.361
	l-0.266-6.49c-13.996-13.634-31.494-17.313-41.2-18.276l-0.444,14.216l-3.923-14.513c-1.892-0.065-2.984-0.013-2.984-0.013
	S107.445,1.98,86.936,21.959L86.495,32.72l-1.688-8.336l0.519,11.154l-5.966-6.744l3.891,11.154l-7.523-2.853l5.06,4.754
	l-5.533-1.27l5.899,45.802l4.797,13.489c0,0-2.411-17.985,7.221-23.173c0,0-19.949-49.459,42.314-41.85
	c62.264-7.609,42.314,41.85,42.314,41.85c9.632,5.188,7.221,23.173,7.221,23.173l4.797-13.489l5.899-45.802L186.535,42.687z"/>
<path style="fill:#989898;" d="M143.437,169.638l-2.526-4.557l7.342-8.476H122.72l7.342,8.476l-0.945,1.705l2.496,4.311l1.448-5.504
	c1.159,7.532,5.794,2.318,5.794,2.318l-0.29,4.925C138.565,172.835,141.677,171.867,143.437,169.638z"/>
<ellipse style="opacity:0.2;fill:#FFFFFF;" cx="135.487" cy="153.715" rx="8.872" ry="1.448"/>
<path style="opacity:0.4;fill:#D1A686;" d="M135.315,216.421c-3.086,0-5.858-2.472-7.769-6.4c1.157,7.387,4.198,12.661,7.769,12.661
	c3.57,0,6.612-5.274,7.769-12.66C141.173,213.949,138.401,216.421,135.315,216.421z"/>
<polygon style="fill:#90C2D3;" points="165.249,239.836 165.249,227.048 145.858,227.048 134.708,242.946 123.558,227.048 
	104.167,227.048 104.167,239.836 87.362,252.928 87.362,283.465 131.961,283.465 137.455,283.465 182.055,283.465 182.055,252.928 
	"/>
<g>
	<polygon points="104.031,238.729 107.318,283.465 59.984,283.465 59.984,256.808 87.267,246.947 	"/>
	<polygon points="165.171,238.729 161.884,283.465 209.218,283.465 209.218,256.808 181.935,246.947 	"/>
</g>
</svg>
