<?xml version="1.0" encoding="utf-8"?>
<!-- Generator: Adobe Illustrator 16.0.4, SVG Export Plug-In . SVG Version: 6.00 Build 0)  -->
<!DOCTYPE svg PUBLIC "-//W3C//DTD SVG 1.1//EN" "http://www.w3.org/Graphics/SVG/1.1/DTD/svg11.dtd">
<svg version="1.1" id="Art" xmlns="http://www.w3.org/2000/svg" xmlns:xlink="http://www.w3.org/1999/xlink" x="0px" y="0px"
	 width="64px" height="64px" viewBox="0 0 64 64" enable-background="new 0 0 64 64" xml:space="preserve">
<path fill="#969696" stroke="#000000" stroke-width="4" stroke-miterlimit="10" d="M32.401,60C18.227,60,8.35,57.804,8.35,55.841
	l0.036-0.513c0.08-1.165,0.166-2.374,0.465-3.522c0.126-0.485,0.264-1.104,0.416-1.783c0.397-1.799,0.896-4.035,1.536-5.149
	c1.184-2.044,2.573-2.886,4.72-3.722c0.594-0.231,1.124-0.558,1.646-0.885c0.415-0.256,0.83-0.513,1.277-0.715
	c1.087-0.067,1.75-0.294,2.797-0.776c0.45-0.208,0.888-0.219,1.392-0.232c0.225-0.006,0.453-0.013,0.694-0.035
	c1.05-0.1,1.261-0.55,1.582-1.232l0.257-0.515c0.964-1.805,1.053-5.166,0.487-6.743l-0.2-0.574c-0.397-1.152-0.938-2.727-1.89-3.453
	c-0.2-0.156-0.406-0.295-0.604-0.428c-0.707-0.479-1.218-0.824-1.199-1.741c-0.219-0.327-0.237-0.479-0.265-0.741
	c-0.021-0.227-0.044-0.481-0.181-0.749c-0.077-0.157-0.237-0.312-0.406-0.479c-0.113-0.113-0.256-0.253-0.295-0.332
	c-0.219-0.411-0.38-0.692-0.503-0.902c-0.33-0.563-0.33-0.563-0.317-1.594l0.009-5.849c0.171-0.399,0.379-1.066,0.566-1.672
	c0.154-0.492,0.292-0.942,0.4-1.218l0.017-1.315c0.944-1.966,4.062-4.918,6.27-5.843c0.115-0.053,0.268-0.074,0.469-0.074
	c0.155,0,0.313,0.013,0.477,0.024c0.182,0.014,0.366,0.027,0.549,0.027c0.287,0,0.521-0.035,0.732-0.11l0.527-0.207
	c0.358-0.146,0.577-0.237,0.878-0.237c0.237,0,0.524,0.055,0.939,0.177l3.727-0.124c0.127,0.043,0.297,0.179,0.479,0.325
	c0.168,0.134,0.338,0.269,0.54,0.34l1.375-0.119c0.079,0.047,1.648,0.737,1.932,0.909c2.145,1.296,3.377,4.138,4.467,6.645
	c0.202,0.47,0.404,0.928,0.604,1.37c0.341,0.747,0.271,2.023,0.2,3.255c-0.06,1.035-0.119,2.095,0.06,2.904
	c0.092,0.398,0.228,0.554,0.372,0.614c-1.07-0.446-0.373-0.616-0.372-0.614c0.372,0.614,0.194,0.959,0.14,1.167
	c-0.191,0.778-0.469,1.421-0.739,2.04c-0.418,0.968-0.814,1.884-0.814,3.154c-0.062,0.03-0.137,0.063-0.215,0.1
	c-0.356,0.159-0.761,0.341-0.966,0.561c-0.34,0.531-0.534,1.082-0.723,1.616c-0.2,0.565-0.389,1.102-0.702,1.524
	c-0.231,0.326-0.515,0.624-0.79,0.922c-0.332,0.356-0.664,0.71-0.914,1.092c-0.338,0.511-0.173,1.604-0.021,2.662
	c0.081,0.556,0.159,1.08,0.135,1.361c-0.178,2.071,0.409,3.266,1.99,4.002c0.925,0.432,1.921,0.62,2.886,0.802
	c0.551,0.104,1.099,0.207,1.635,0.353c1.073,0.297,2.293,0.634,3.437,1.203c0.485,0.24,1.02,0.41,1.559,0.585
	c0.658,0.208,1.338,0.43,1.915,0.785c1.359,0.844,2.457,3.129,3.253,6.786l0.184,0.906c0.181,0.923,0.351,4.407,0.197,5.958
	C56.46,57.804,46.577,60,32.401,60z"/>
</svg>
