<?xml version="1.0" encoding="utf-8"?>
<!-- Generator: Adobe Illustrator 16.0.0, SVG Export Plug-In . SVG Version: 6.00 Build 0)  -->
<svg version="1.2" baseProfile="tiny" id="Art" xmlns="http://www.w3.org/2000/svg" xmlns:xlink="http://www.w3.org/1999/xlink"
	 x="0px" y="0px" width="29px" height="29px" viewBox="0 0 29 29" xml:space="preserve">
<rect fill="none" width="29" height="29"/>
<path fill="#666662" d="M14.5,28.9c-7.94,0-14.4-6.46-14.4-14.4S6.56,0.1,14.5,0.1S28.9,6.56,28.9,14.5S22.44,28.9,14.5,28.9z"/>
<path fill="#FFFFFF" d="M14.501,23.9c-5.132,0-8.708-0.794-8.708-1.506l0.013-0.185c0.029-0.422,0.06-0.859,0.168-1.275
	c0.046-0.176,0.096-0.4,0.151-0.646c0.144-0.651,0.324-1.461,0.556-1.864c0.429-0.74,0.932-1.045,1.709-1.348
	c0.215-0.084,0.407-0.202,0.596-0.32c0.15-0.093,0.3-0.186,0.462-0.259c0.394-0.024,0.634-0.107,1.013-0.281
	c0.163-0.075,0.321-0.079,0.504-0.084c0.081-0.002,0.164-0.005,0.251-0.013c0.38-0.036,0.457-0.199,0.573-0.446l0.093-0.187
	c0.349-0.653,0.381-1.87,0.176-2.441l-0.072-0.208c-0.144-0.417-0.34-0.987-0.684-1.25c-0.073-0.057-0.147-0.107-0.219-0.155
	c-0.256-0.173-0.441-0.298-0.434-0.63c-0.079-0.119-0.086-0.174-0.096-0.269c-0.007-0.082-0.016-0.174-0.065-0.271
	c-0.028-0.057-0.086-0.113-0.147-0.173c-0.041-0.041-0.093-0.092-0.107-0.12c-0.079-0.149-0.138-0.251-0.182-0.327
	C9.932,9.438,9.932,9.438,9.937,9.065l0.003-2.118c0.062-0.144,0.137-0.386,0.205-0.605c0.056-0.178,0.106-0.341,0.145-0.441
	l0.006-0.476c0.342-0.712,1.471-1.781,2.27-2.116c0.042-0.019,0.097-0.027,0.17-0.027c0.056,0,0.113,0.005,0.172,0.009
	c0.066,0.005,0.133,0.01,0.199,0.01c0.104,0,0.189-0.013,0.265-0.04l0.191-0.075C13.693,3.133,13.772,3.1,13.881,3.1
	c0.086,0,0.19,0.02,0.34,0.064l1.349-0.045c0.046,0.016,0.108,0.065,0.174,0.118c0.061,0.048,0.122,0.097,0.195,0.123l0.499-0.043
	c0.028,0.017,0.596,0.267,0.698,0.329c0.777,0.469,1.224,1.498,1.618,2.406c0.073,0.17,0.146,0.336,0.219,0.496
	c0.123,0.27,0.097,0.732,0.072,1.178c-0.021,0.375-0.043,0.759,0.022,1.052C19.099,8.922,19.144,9,19.201,9
	c-0.001,0-0.002,0-0.003,0c-0.033,0-0.062,0.125-0.081,0.2c-0.069,0.282-0.17,0.515-0.268,0.739
	c-0.151,0.35-0.295,0.682-0.294,1.142c-0.023,0.011-0.05,0.023-0.078,0.036c-0.13,0.058-0.276,0.123-0.35,0.203
	c-0.123,0.192-0.193,0.392-0.262,0.585c-0.072,0.205-0.141,0.399-0.253,0.552c-0.084,0.118-0.187,0.226-0.287,0.334
	c-0.12,0.129-0.24,0.257-0.331,0.395c-0.122,0.185-0.063,0.581-0.008,0.964c0.03,0.201,0.058,0.391,0.049,0.493
	c-0.065,0.749,0.149,1.182,0.721,1.449c0.335,0.156,0.695,0.224,1.045,0.29c0.199,0.038,0.397,0.075,0.591,0.128
	c0.389,0.107,0.83,0.229,1.244,0.435c0.177,0.087,0.37,0.149,0.565,0.212c0.238,0.076,0.484,0.155,0.693,0.284
	c0.493,0.306,0.89,1.133,1.178,2.458l0.067,0.328c0.065,0.334,0.127,1.595,0.071,2.157C23.212,23.106,19.634,23.9,14.501,23.9z"/>
<g>
	<path fill="#666662" d="M14.391,23.38c-0.201,0-0.37-0.058-0.518-0.178c-0.143-0.115-0.215-0.28-0.215-0.491
		c0-0.187,0.07-0.345,0.21-0.472c0.142-0.13,0.312-0.192,0.522-0.192c0.203,0,0.375,0.064,0.51,0.192
		c0.138,0.127,0.204,0.281,0.204,0.472c0,0.21-0.068,0.37-0.211,0.489C14.745,23.321,14.58,23.38,14.391,23.38z M14.266,21.264
		c-0.186,0-0.338-0.055-0.465-0.167c-0.123-0.108-0.185-0.276-0.185-0.498c0-0.286,0.048-0.536,0.143-0.742
		c0.094-0.209,0.218-0.39,0.379-0.554c0.16-0.161,0.377-0.354,0.648-0.574c0.241-0.197,0.414-0.345,0.522-0.445
		c0.11-0.103,0.204-0.218,0.277-0.342c0.075-0.125,0.114-0.266,0.114-0.419c0-0.291-0.117-0.54-0.348-0.739
		c-0.232-0.198-0.532-0.298-0.893-0.298c-0.422,0-0.738,0.102-0.938,0.303c-0.197,0.195-0.367,0.488-0.506,0.871
		c-0.121,0.379-0.344,0.563-0.682,0.563c-0.199,0-0.367-0.066-0.502-0.195c-0.136-0.128-0.204-0.268-0.204-0.417
		c0-0.32,0.112-0.651,0.335-0.984c0.224-0.333,0.556-0.612,0.985-0.831c0.43-0.219,0.938-0.331,1.512-0.331
		c0.535,0,1.014,0.093,1.422,0.277c0.405,0.182,0.724,0.433,0.947,0.748c0.22,0.311,0.33,0.654,0.33,1.021
		c0,0.289-0.062,0.544-0.187,0.758c-0.128,0.221-0.28,0.412-0.452,0.568c-0.177,0.164-0.497,0.435-0.956,0.819
		c-0.131,0.109-0.234,0.205-0.312,0.289c-0.075,0.08-0.136,0.16-0.176,0.232c-0.045,0.084-0.072,0.149-0.09,0.215
		c-0.021,0.066-0.053,0.186-0.095,0.36C14.823,21.098,14.619,21.264,14.266,21.264z"/>
</g>
</svg>
