<?xml version="1.0" encoding="utf-8"?>
<!-- Generator: Adobe Illustrator 16.0.4, SVG Export Plug-In . SVG Version: 6.00 Build 0)  -->
<!DOCTYPE svg PUBLIC "-//W3C//DTD SVG 1.1//EN" "http://www.w3.org/Graphics/SVG/1.1/DTD/svg11.dtd">
<svg version="1.1" id="Layer_1" xmlns="http://www.w3.org/2000/svg" xmlns:xlink="http://www.w3.org/1999/xlink" x="0px" y="0px"
	 width="792px" height="612px" viewBox="0 0 792 612" enable-background="new 0 0 792 612" xml:space="preserve">
<g>
	<path fill="#F4C9A0" d="M167.732,272.009v87.596v12.515c0,125.974,159.344,228.587,228.588,228.587S624.908,498.094,624.908,372.12
		V272.009v-8.342c0-125.974-102.616-228.589-228.588-228.589c-125.975,0-228.588,102.615-228.588,228.589V272.009z"/>
	<path fill="#F4C9A0" d="M624.908,361.275c21.688,0,39.211-17.52,39.211-39.211s-17.522-39.211-39.211-39.211"/>
	<path fill="#F4C9A0" d="M167.732,361.275c-21.691,0-39.211-17.52-39.211-39.211s17.52-39.211,39.211-39.211V361.275z"/>
	<circle fill="#030303" cx="490.592" cy="329.574" r="25.862"/>
	<circle fill="#030303" cx="296.207" cy="329.574" r="25.862"/>
	<g>
		<path fill="#FFFFFF" d="M392.981,502.267c-48.386,0-87.597-39.211-87.597-87.597h175.196
			C480.581,463.056,441.37,502.267,392.981,502.267z"/>
	</g>
	<g>
		<path fill="#742723" d="M676.633,318.729c0-168.521-111.791-305.34-280.312-305.34s-280.312,136.819-280.312,305.34
			c0,105.952,29.197,115.963,111.791,171.024c0,44.216-55.061-266.129,0-266.129c162.68,0,172.69-78.422,172.69-78.422
			s34.206,78.422,166.853,78.422c30.036,0,21.691,265.292,0,265.292C648.266,433.022,676.633,423.845,676.633,318.729z"/>
	</g>
</g>
</svg>
